<svg width="500" height="500" viewBox="0 0 500 500" fill="none" xmlns="http://www.w3.org/2000/svg">
<rect width="500" height="500" fill="black"/>
<path fill-rule="evenodd" clip-rule="evenodd" d="M275.431 168.403L275.083 75H222.843L223.191 168.403L249.311 204.167L275.431 168.403ZM223.191 328.472V422.222H275.431V328.472L249.311 292.708L223.191 328.472Z" fill="white"/>
<path fill-rule="evenodd" clip-rule="evenodd" d="M275.431 328.472L330.457 404.166L372.597 373.611L317.571 297.916L275.431 284.375V328.472ZM223.191 168.402L167.816 92.708L125.676 123.264L180.702 198.958L223.191 212.5V168.402Z" fill="#00F2E6"/>
<path fill-rule="evenodd" clip-rule="evenodd" d="M180.702 198.958L91.5457 170.139L75.5254 219.444L164.682 248.611L206.822 234.722L180.702 198.958ZM291.451 262.153L317.571 297.916L406.727 326.736L422.748 277.43L333.591 248.611L291.451 262.153Z" fill="#00B9F1"/>
<path fill-rule="evenodd" clip-rule="evenodd" d="M333.591 248.611L422.748 219.444L406.727 170.139L317.571 198.958L291.451 234.722L333.591 248.611ZM164.682 248.611L75.5254 277.43L91.5457 326.736L180.702 297.916L206.822 262.153L164.682 248.611Z" fill="#D63AFF"/>
<path fill-rule="evenodd" clip-rule="evenodd" d="M180.702 297.916L125.676 373.611L167.816 404.166L223.191 328.472V284.375L180.702 297.916ZM317.571 198.958L372.597 123.264L330.457 92.708L275.431 168.402V212.5L317.571 198.958Z" fill="#FB015B"/>
</svg>
