<svg width="110" height="110" viewBox="0 0 110 110" fill="none" xmlns="http://www.w3.org/2000/svg">
<g clip-path="url(#clip0_726_413)">
<mask id="mask0_726_413" style="mask-type:luminance" maskUnits="userSpaceOnUse" x="0" y="0" width="110" height="110">
<path d="M110 0H0V110H110V0Z" fill="white"/>
</mask>
<g mask="url(#mask0_726_413)">
<path d="M8.5938 0H101.406C106.153 0 110 3.84742 110 8.5938V101.406C110 106.153 106.153 110 101.406 110H8.5938C3.84742 110 0 106.153 0 101.406V8.5938C0 3.84742 3.84742 0 8.5938 0Z" fill="#3178C6"/>
<path d="M64.6757 86.1416V98.01C66.6059 98.999 68.8888 99.74 71.5241 100.235C74.1593 100.729 76.9368 100.977 79.857 100.977C82.7024 100.977 85.406 100.705 87.9669 100.161C90.5279 99.617 92.7738 98.72 94.7036 97.472C96.634 96.223 98.162 94.5914 99.288 92.5762C100.414 90.5614 100.977 88.0705 100.977 85.1035C100.977 82.9525 100.655 81.067 100.011 79.4475C99.375 77.839 98.429 76.371 97.228 75.127C96.015 73.8659 94.5613 72.7349 92.8666 71.7333C91.1715 70.7321 89.2598 69.7864 87.1316 68.8965C85.5727 68.2533 84.1749 67.6294 82.9374 67.0235C81.7004 66.4177 80.6485 65.7998 79.7827 65.169C78.9164 64.5386 78.2482 63.8709 77.7782 63.1662C77.3081 62.4615 77.073 61.6645 77.073 60.7741C77.073 59.9582 77.2832 59.223 77.7038 58.5677C78.1245 57.9124 78.7188 57.35 79.4857 56.8803C80.2527 56.4102 81.1929 56.0459 82.3066 55.7859C83.42 55.5264 84.6575 55.3966 86.0183 55.3966C87.0083 55.3966 88.0537 55.4709 89.1546 55.6192C90.2559 55.7674 91.3632 55.996 92.4769 56.3054C93.5871 56.6132 94.6727 57.0037 95.724 57.4737C96.744 57.9257 97.72 58.4719 98.638 59.1052V48.0163C96.832 47.3241 94.8582 46.811 92.718 46.4771C90.5777 46.1433 88.1216 45.9766 85.3501 45.9766C82.5292 45.9766 79.857 46.2795 77.333 46.8854C74.809 47.4908 72.588 48.4365 70.6703 49.7221C68.7526 51.0082 67.2371 52.6462 66.1233 54.6365C65.01 56.6268 64.4531 59.0064 64.4531 61.7757C64.4531 65.3112 65.4736 68.3276 67.5155 70.825C69.557 73.3219 72.6559 75.4359 76.8131 77.1667C78.3478 77.7917 79.8699 78.4471 81.3785 79.1325C82.7892 79.7753 84.0078 80.4427 85.0347 81.1349C86.0617 81.8271 86.8721 82.5812 87.4659 83.3972C88.0597 84.2132 88.3566 85.1404 88.3566 86.179C88.3616 86.9264 88.1695 87.6619 87.7998 88.3115C87.4289 88.9664 86.8656 89.5353 86.1111 90.0174C85.3566 90.4995 84.416 90.8763 83.2902 91.1483C82.1644 91.4203 80.8466 91.5565 79.3371 91.5565C76.7637 91.5565 74.2152 91.1054 71.6912 90.2026C69.1668 89.3002 66.8284 87.9467 64.6757 86.1416ZM44.8946 56.6079H60.1562V46.8359H17.6172V56.6079H32.8045V100.117H44.8946V56.6079Z" fill="white"/>
</g>
</g>
<defs>
<clipPath id="clip0_726_413">
<rect width="110" height="110" fill="white"/>
</clipPath>
</defs>
</svg>
